<svg height="496pt" viewBox="0 0 496 496" width="496pt" xmlns="http://www.w3.org/2000/svg"><path d="m384 400.449219c0-17.992188-12.121094-33.855469-29.480469-38.59375l-58.519531-15.96875v-23.703125c9.929688-11.28125 16-26.023438 16-42.191406v-32c0-35.289063-28.710938-64-64-64s-64 28.710937-64 64v32c0 16.167968 6.070312 30.910156 16 42.191406v23.703125l-58.519531 15.960937c-17.359375 4.738282-29.480469 20.609375-29.480469 38.601563v79.550781h-112v16h496v-16h-112zm-136-26.695313-32-25.601562v-12.816406c9.425781 5.480468 20.335938 8.664062 32 8.664062s22.574219-3.183594 32-8.65625v12.816406zm-13.0625 10.046875-14.441406 10.832031-8.289063-29.015624zm48.855469-18.191406-8.289063 29.015625-14.441406-10.832031zm-83.792969-117.609375c0-26.472656 21.527344-48 48-48s48 21.527344 48 48v32c0 26.472656-21.527344 48-48 48s-48-21.527344-48-48zm-72 152.449219c0-10.800781 7.273438-20.320313 17.6875-23.160157l49.367188-13.464843 16.441406 57.550781 36.503906-27.375 36.496094 27.375 16.441406-57.550781 49.367188 13.464843c10.421874 2.839844 17.695312 12.359376 17.695312 23.160157v79.550781h-40v-72h-16v72h-128v-72h-16v72h-40zm0 0"/><path d="m63.433594 304h16v16h-16zm0 0"/><path d="m96 192h96v-96c0-52.9375-43.0625-96-96-96s-96 43.0625-96 96 43.0625 96 96 96zm0-176c44.113281 0 80 35.886719 80 80v80h-80c-44.113281 0-80-35.886719-80-80s35.886719-80 80-80zm0 0"/><path d="m496 96c0-52.9375-43.0625-96-96-96s-96 43.0625-96 96v96h96c52.9375 0 96-43.0625 96-96zm-176 0c0-44.113281 35.886719-80 80-80s80 35.886719 80 80-35.886719 80-80 80h-80zm0 0"/><path d="m417.367188 149.199219c2.738281-.894531 5.394531-2 7.960937-3.3125l10.191406 5.105469 19.472657-19.480469-5.097657-10.175781c1.3125-2.566407 2.410157-5.230469 3.304688-7.96875l10.800781-3.597657v-27.53125l-10.800781-3.597656c-.894531-2.738281-2-5.402344-3.304688-7.96875l5.097657-10.175781-19.472657-19.488282-10.191406 5.105469c-2.566406-1.3125-5.222656-2.417969-7.960937-3.3125l-3.597657-10.800781h-27.53125l-3.597656 10.800781c-2.738281.894531-5.394531 2-7.960937 3.3125l-10.199219-5.105469-19.472657 19.480469 5.097657 10.175781c-1.3125 2.566407-2.410157 5.230469-3.304688 7.96875l-10.800781 3.597657v27.53125l10.800781 3.597656c.894531 2.738281 2 5.402344 3.304688 7.96875l-5.097657 10.175781 19.472657 19.480469 10.191406-5.105469c2.566406 1.3125 5.222656 2.417969 7.960937 3.3125l3.597657 10.800782h27.53125zm-12.429688-13.296875-2.707031 8.097656h-4.46875l-2.707031-8.097656-4.328126-1.03125c-4.109374-.976563-8.03125-2.605469-11.664062-4.839844l-3.789062-2.335938-7.648438 3.832032-3.160156-3.167969 3.824218-7.640625-2.335937-3.789062c-2.234375-3.625-3.863281-7.554688-4.839844-11.664063l-1.023437-4.328125-8.089844-2.707031v-4.46875l8.097656-2.707031 1.023438-4.328126c.984375-4.109374 2.605468-8.039062 4.839844-11.664062l2.335937-3.789062-3.816406-7.632813 3.160156-3.167969 7.648437 3.832032 3.789063-2.335938c3.632813-2.234375 7.554687-3.863281 11.664063-4.839844l4.328124-1.03125 2.699219-8.097656h4.46875l2.707031 8.097656 4.328126 1.03125c4.109374.976563 8.03125 2.605469 11.664062 4.839844l3.789062 2.335938 7.648438-3.832032 3.160156 3.167969-3.839844 7.640625 2.335938 3.789062c2.234375 3.625 3.863281 7.554688 4.839844 11.664063l1.023437 4.328125 8.105469 2.707031v4.46875l-8.097656 2.707031-1.023438 4.328126c-.984375 4.109374-2.605468 8.039062-4.839844 11.664062l-2.335937 3.789062 3.824219 7.640626-3.160156 3.167968-7.648438-3.832031-3.789062 2.335937c-3.632813 2.234376-7.554688 3.863282-11.664063 4.839844zm0 0"/><path d="m400 72c-13.230469 0-24 10.769531-24 24s10.769531 24 24 24 24-10.769531 24-24-10.769531-24-24-24zm0 32c-4.40625 0-8-3.585938-8-8s3.59375-8 8-8 8 3.585938 8 8-3.59375 8-8 8zm0 0"/><path d="m439.03125 240c-5.496094 0-10.71875 1.769531-15.03125 5.023438-4.3125-3.253907-9.535156-5.023438-15.03125-5.023438-13.769531 0-24.96875 11.199219-24.96875 24.96875 0 6.574219 2.664062 13.007812 7.3125 17.65625l32.6875 32.6875 32.6875-32.6875c4.648438-4.648438 7.3125-11.082031 7.3125-17.65625 0-13.769531-11.199219-24.96875-24.96875-24.96875zm6.34375 31.3125-21.375 21.375-21.375-21.375c-1.664062-1.671875-2.625-3.984375-2.625-6.34375 0-4.945312 4.023438-8.96875 8.96875-8.96875 2.398438 0 4.648438.929688 6.34375 2.625l8.6875 8.6875 8.6875-8.6875c1.695312-1.695312 3.945312-2.625 6.34375-2.625 4.945312 0 8.96875 4.023438 8.96875 8.96875 0 2.359375-.960938 4.671875-2.625 6.34375zm0 0"/><path d="m472 208h-96c-13.230469 0-24 10.769531-24 24v96c0 13.230469 10.769531 24 24 24h96c13.230469 0 24-10.769531 24-24v-96c0-13.230469-10.769531-24-24-24zm8 120c0 4.414062-3.59375 8-8 8h-96c-4.40625 0-8-3.585938-8-8v-96c0-4.414062 3.59375-8 8-8h96c4.40625 0 8 3.585938 8 8zm0 0"/><path d="m24 352h96c13.230469 0 24-10.769531 24-24v-96c0-13.230469-10.769531-24-24-24h-96c-13.230469 0-24 10.769531-24 24v96c0 13.230469 10.769531 24 24 24zm-8-120c0-4.414062 3.59375-8 8-8h96c4.40625 0 8 3.585938 8 8v96c0 4.414062-3.59375 8-8 8h-96c-4.40625 0-8-3.585938-8-8zm0 0"/><path d="m72 256c15 0 29.105469 5.640625 39.695312 15.871094l11.121094-11.503906c-13.59375-13.136719-31.640625-20.367188-50.816406-20.367188s-37.222656 7.230469-50.816406 20.375l11.121094 11.503906c10.589843-10.238281 24.695312-15.878906 39.695312-15.878906zm0 0"/><path d="m44.175781 281.910156 10.390625 12.167969c9.1875-7.839844 25.679688-7.839844 34.867188 0l10.390625-12.167969c-7.488281-6.390625-17.367188-9.910156-27.824219-9.910156s-20.335938 3.519531-27.824219 9.910156zm0 0"/><path d="m96 160c35.289062 0 64-28.710938 64-64s-28.710938-64-64-64-64 28.710938-64 64 28.710938 64 64 64zm-48-64c0-6.863281 1.472656-13.382812 4.078125-19.296875 3.464844 2.050781 7.800781 4.191406 13.128906 6.105469-.757812 4.214844-1.207031 8.625-1.207031 13.191406s.449219 8.976562 1.207031 13.191406c-5.328125 1.914063-9.664062 4.046875-13.128906 6.105469-2.605469-5.914063-4.078125-12.433594-4.078125-19.296875zm48-8c5.550781 0 10.519531-.550781 15.207031-1.304688.488281 3.007813.792969 6.105469.792969 9.304688 0 3.191406-.304688 6.289062-.792969 9.304688-4.695312-.753907-9.65625-1.304688-15.207031-1.304688s-10.519531.550781-15.207031 1.304688c-.488281-3.007813-.792969-6.105469-.792969-9.304688 0-3.191406.304688-6.289062.792969-9.304688 4.695312.753907 9.65625 1.304688 15.207031 1.304688zm-10.753906-16.726562c3.265625-7.847657 7.433594-14.3125 10.769531-18.800782 3.335937 4.472656 7.511719 10.925782 10.769531 18.792969-3.34375.4375-6.898437.734375-10.785156.734375-3.871094 0-7.414062-.296875-10.753906-.726562zm58.753906 24.726562c0 6.863281-1.472656 13.382812-4.078125 19.296875-3.464844-2.050781-7.800781-4.191406-13.128906-6.105469.757812-4.214844 1.207031-8.625 1.207031-13.191406s-.449219-8.976562-1.207031-13.191406c5.328125-1.914063 9.664062-4.046875 13.128906-6.105469 2.605469 5.914063 4.078125 12.433594 4.078125 19.296875zm-37.246094 24.726562c-3.265625 7.847657-7.433594 14.3125-10.769531 18.800782-3.335937-4.472656-7.511719-10.925782-10.769531-18.792969 3.34375-.4375 6.898437-.734375 10.785156-.734375 3.871094 0 7.414062.296875 10.753906.726562zm-45.882812 7.882813c2.320312-1.335937 5.191406-2.738281 8.664062-4.035156 2.242188 5.839843 4.914063 11.074219 7.609375 15.5625-6.214843-2.671875-11.730469-6.640625-16.273437-11.527344zm53.976562 11.527344c2.695313-4.488281 5.367188-9.722657 7.609375-15.5625 3.464844 1.304687 6.34375 2.707031 8.664063 4.035156-4.535156 4.886719-10.050782 8.855469-16.273438 11.527344zm16.28125-76.746094c-2.320312 1.335937-5.191406 2.738281-8.664062 4.035156-2.242188-5.839843-4.914063-11.074219-7.609375-15.5625 6.214843 2.671875 11.730469 6.640625 16.273437 11.527344zm-53.976562-11.527344c-2.695313 4.488281-5.367188 9.722657-7.609375 15.5625-3.472657-1.296875-6.34375-2.699219-8.671875-4.035156 4.542968-4.886719 10.058594-8.855469 16.28125-11.527344zm0 0"/></svg>