<svg height="496pt" viewBox="0 0 496 496" width="496pt" xmlns="http://www.w3.org/2000/svg"><path d="m472 288h-40v-16c0-8.824219-7.175781-16-16-16h-128v-16.511719c19.832031-2.535156 37.617188-14.390625 47.59375-31.902343 45.460938-3.84375 80.40625-41.441407 80.40625-87.585938 0-42.273438-30.542969-78.679688-71.734375-86.398438-11.105469-20.554687-32.746094-33.601562-56.265625-33.601562-13.457031 0-26.457031 4.238281-37.304688 12.0625-9.847656-7.824219-21.925781-12.0625-34.695312-12.0625-18.816406 0-36.113281 9.34375-46.457031 24.753906-32.710938-5.089844-62.269531 15.109375-70.992188 45.476563-22.574219 15.578125-35.421875 40.945312-34.503906 68.488281 1.425781 42.617188 38.511719 77.28125 83.113281 77.28125 17.855469 0 35.230469-4.574219 50.679688-13.289062 10.734375 13.992187 24.566406 25.433593 40.382812 33.34375l1.777344.890624v19.054688h-120c-8.824219 0-16 7.175781-16 16v16h-80c-13.230469 0-24 10.769531-24 24v128c0 13.230469 10.769531 24 24 24h24v16h-16v16h160v-16h-16v-16h24c13.230469 0 24-10.769531 24-24v-128c0-13.230469-10.769531-24-24-24h-80v-16h120c8.824219 0 16-7.175781 16-16v-28.945312l-10.625-5.3125c-15.632812-7.8125-29.023438-19.636719-38.71875-34.175782l-4.441406-6.65625-6.65625 4.441406c-14.382813 9.585938-31.109375 14.648438-48.824219 14.648438-35.636719 0-65.558594-27.726562-66.703125-61.816406-.757812-22.886719 10.375-43.902344 29.785156-56.214844l2.757813-1.753906.746093-3.183594c3.824219-16.390625 15.519532-29.207031 30.679688-34.457031v45.425781h40v24h-41.472656c-3.3125-9.289062-12.113282-16-22.527344-16-13.230469 0-24 10.769531-24 24s10.769531 24 24 24c10.414062 0 19.214844-6.710938 22.527344-16h9.472656v24h16v-24h32v-40h9.472656c3.3125 9.289062 12.113282 16 22.527344 16 13.230469 0 24-10.769531 24-24s-10.769531-24-24-24c-10.414062 0-19.214844 6.710938-22.527344 16h-49.472656v-31.992188c3.777344.046876 7.648438.488282 11.574219 1.464844l6.097656 1.511719 2.914063-5.550781c6.949218-13.226563 20.527343-21.433594 35.414062-21.433594 10.871094 0 21.0625 4.320312 28.679688 12.152344l5.390624 5.542968 5.730469-5.199218c8.863281-8.054688 20.304688-12.496094 32.199219-12.496094 18.734375 0 35.863281 11.046875 43.65625 28.152344l1.832031 4.007812 4.367188.601563c11.089843 1.519531 21.320312 5.558593 30.152343 11.496093v19.742188h-64v48h-16v-64h-16v64h-56v16h16v32h48v-16h-32v-16h81.472657c3.3125 9.289062 12.113281 16 22.527343 16 13.230469 0 24-10.769531 24-24s-10.769531-24-24-24c-10.414062 0-19.214843 6.710938-22.527343 16h-9.480469v-32h64v-20.96875c10 12.417969 16 28.105469 16 44.96875 0 39.039062-30.59375 70.617188-69.65625 71.871094l-4.878906.160156-2.097656 4.425781c-7.902344 16.726563-24.925782 27.542969-43.367188 27.542969h-8v32c0 8.824219 7.175781 16 16 16h128v16h-40c-13.230469 0-24 10.769531-24 24v160c0 13.230469 10.769531 24 24 24h96c13.230469 0 24-10.769531 24-24v-160c0-13.230469-10.769531-24-24-24zm-272 160h-120v16h80v16h-96v-32h-40c-4.414062 0-8-3.59375-8-8v-24h52.6875l16 16h123.3125v8c0 4.40625-3.585938 8-8 8zm8-136v104h-116.6875l-16-16h-59.3125v-88c0-4.40625 3.585938-8 8-8h176c4.414062 0 8 3.59375 8 8zm-88-184c-4.414062 0-8-3.59375-8-8s3.585938-8 8-8 8 3.59375 8 8-3.585938 8-8 8zm112-56c4.414062 0 8 3.59375 8 8s-3.585938 8-8 8-8-3.59375-8-8 3.585938-8 8-8zm120 56c4.414062 0 8 3.59375 8 8s-3.585938 8-8 8-8-3.59375-8-8 3.585938-8 8-8zm24 176h96c4.414062 0 8 3.59375 8 8v8h-112v-8c0-4.40625 3.585938-8 8-8zm104 32v112h-112v-112zm-8 144h-96c-4.414062 0-8-3.59375-8-8v-8h112v8c0 4.40625-3.585938 8-8 8zm0 0"/><path d="m272 32h16v16h-16zm0 0"/><path d="m296 160h16v16h-16zm0 0"/><path d="m152 168h16v16h-16zm0 0"/><path d="m248 376h16v16h-16zm0 0"/><path d="m280 376h16v16h-16zm0 0"/><path d="m312 376h16v16h-16zm0 0"/></svg>