<?xml version="1.0" encoding="iso-8859-1"?>
<!-- Generator: Adobe Illustrator 22.0.0, SVG Export Plug-In . SVG Version: 6.00 Build 0)  -->
<svg xmlns="http://www.w3.org/2000/svg" xmlns:xlink="http://www.w3.org/1999/xlink" version="1.1" x="0px" y="0px" viewBox="0 0 60 60" style="enable-background:new 0 0 60 60;" xml:space="preserve" width="512" height="512">
<g id="_x33_9-Buy_House">
	<path d="M30,52c-2.206,0-4-1.794-4-4s1.794-4,4-4s4,1.794,4,4S32.206,52,30,52z M30,46c-1.103,0-2,0.897-2,2s0.897,2,2,2   s2-0.897,2-2S31.103,46,30,46z"/>
	<path d="M46,60H14c-0.552,0-1-0.447-1-1V37c0-0.553,0.448-1,1-1h32c0.552,0,1,0.447,1,1v22C47,59.553,46.552,60,46,60z M15,58h30   V38H15V58z"/>
	<path d="M38,56H22c-0.552,0-1-0.447-1-1c0-1.654-1.346-3-3-3c-0.552,0-1-0.447-1-1v-6c0-0.553,0.448-1,1-1c1.654,0,3-1.346,3-3   c0-0.553,0.448-1,1-1h16c0.552,0,1,0.447,1,1c0,1.654,1.346,3,3,3c0.552,0,1,0.447,1,1v6c0,0.553-0.448,1-1,1c-1.654,0-3,1.346-3,3   C39,55.553,38.552,56,38,56z M22.899,54h14.201c0.398-1.956,1.943-3.501,3.899-3.899v-4.201c-1.956-0.398-3.501-1.943-3.899-3.899   H22.899c-0.398,1.956-1.943,3.501-3.899,3.899v4.201C20.956,50.499,22.501,52.044,22.899,54z"/>
	<path d="M42,28H20c-0.552,0-1-0.447-1-1V10c0-0.3,0.135-0.584,0.367-0.774l11-9c0.368-0.301,0.898-0.301,1.267,0l11,9   C42.865,9.416,43,9.7,43,10v17C43,27.553,42.552,28,42,28z M21,26h20V10.474L31,2.292l-10,8.182V26z"/>
	<path d="M34,28h-6c-0.552,0-1-0.447-1-1V17c0-0.553,0.448-1,1-1h6c0.552,0,1,0.447,1,1v10C35,27.553,34.552,28,34,28z M29,26h4v-8   h-4V26z"/>
	<path d="M15,15c-0.291,0-0.579-0.126-0.776-0.369c-0.349-0.429-0.283-1.059,0.146-1.407l16-13c0.427-0.348,1.059-0.283,1.406,0.146   c0.349,0.429,0.283,1.059-0.146,1.407l-16,13C15.445,14.927,15.222,15,15,15z"/>
	<path d="M46.999,15c-0.222,0-0.445-0.073-0.63-0.224l-16-13c-0.429-0.349-0.494-0.979-0.146-1.407   c0.348-0.428,0.979-0.492,1.406-0.146l16,13c0.429,0.349,0.494,0.979,0.146,1.407C47.579,14.874,47.29,15,46.999,15z"/>
	<path d="M54,46c-0.253,0-0.507-0.096-0.701-0.287c-0.394-0.388-0.399-1.021-0.012-1.414c3.099-3.149,4.815-7.348,4.708-11.519   c-0.096-3.744-1.645-7.178-4.362-9.67l-2.351-2.413c-0.385-0.396-0.376-1.028,0.02-1.414c0.396-0.385,1.028-0.376,1.414,0.02   l2.31,2.373c3.08,2.822,4.859,6.762,4.969,11.053c0.121,4.711-1.805,9.439-5.282,12.973C54.517,45.9,54.259,46,54,46z"/>
	<path d="M58.001,22c-0.054,0-0.11-0.004-0.166-0.014l-6-1c-0.544-0.091-0.913-0.606-0.822-1.15s0.604-0.916,1.151-0.822l6,1   c0.544,0.091,0.913,0.606,0.822,1.15C58.905,21.653,58.481,22,58.001,22z"/>
	<path d="M52.999,28c-0.489,0-0.917-0.359-0.988-0.858l-1-7c-0.078-0.547,0.302-1.054,0.848-1.132   c0.549-0.074,1.053,0.302,1.131,0.849l1,7c0.078,0.547-0.302,1.054-0.848,1.132C53.093,27.997,53.046,28,52.999,28z"/>
	<path d="M8,46c-0.26,0-0.521-0.102-0.717-0.303l-2.31-2.373c-3.08-2.822-4.859-6.762-4.969-11.053   c-0.121-4.711,1.805-9.439,5.282-12.973c0.388-0.394,1.021-0.397,1.414-0.012c0.394,0.388,0.399,1.021,0.012,1.414   c-3.099,3.149-4.815,7.348-4.708,11.519c0.096,3.744,1.645,7.178,4.362,9.67l2.351,2.413c0.385,0.396,0.376,1.028-0.02,1.414   C8.503,45.906,8.252,46,8,46z"/>
	<path d="M8.001,46c-0.054,0-0.11-0.004-0.166-0.014l-6-1c-0.544-0.091-0.913-0.606-0.822-1.15s0.603-0.916,1.151-0.822l6,1   c0.544,0.091,0.913,0.606,0.822,1.15C8.905,45.653,8.481,46,8.001,46z"/>
	<path d="M7.999,46c-0.489,0-0.917-0.359-0.988-0.858l-1-7c-0.078-0.547,0.302-1.054,0.848-1.132   c0.55-0.073,1.053,0.302,1.131,0.849l1,7c0.078,0.547-0.302,1.054-0.848,1.132C8.094,45.997,8.046,46,7.999,46z"/>
	<path d="M45,28H17c-0.552,0-1-0.447-1-1s0.448-1,1-1h28c0.552,0,1,0.447,1,1S45.552,28,45,28z"/>
	<path d="M33,13h-4c-0.552,0-1-0.447-1-1V8c0-0.553,0.448-1,1-1h4c0.552,0,1,0.447,1,1v4C34,12.553,33.552,13,33,13z M30,11h2V9h-2   V11z"/>
</g>

</svg>
