<svg height="490pt" viewBox="0 -22 490.37618 490" width="490pt" xmlns="http://www.w3.org/2000/svg"><path d="m253.1875 232.1875v-18.519531l66.832031-.011719c4.449219.015625 8.089844-3.546875 8.167969-8v-61.921875c1.042969-12.171875-3.042969-24.222656-11.273438-33.253906-8.230468-9.027344-19.855468-14.207031-32.070312-14.292969h-8.554688c-3.375.089844-6.347656 2.238281-7.492187 5.414062l-7.5 20.175782-5.613281-9.96875c-1.441406-2.46875-4.121094-3.949219-6.980469-3.855469l-8.066406.234375c-2.953125-.082031-5.703125 1.507812-7.101563 4.109375l-4.398437 8.386719-6.375-18.828125c-1.085938-3.289063-4.109375-5.554688-7.574219-5.667969h-9.640625c-12.21875.082031-23.847656 5.261719-32.078125 14.292969-8.234375 9.027343-12.320312 21.082031-11.28125 33.253906v61.941406c.164062 4.449219 3.808594 7.980469 8.261719 8l66.738281-.007812v18.519531zm-74.867188-89.644531c-.75-7.714844 1.769532-15.386719 6.945313-21.15625 5.171875-5.769531 12.53125-9.105469 20.28125-9.199219h3.929687l10.589844 31.046875c1.003906 2.96875 3.625 5.09375 6.734375 5.460937 3.085938.347657 6.089844-1.132812 7.699219-3.789062.085938-.140625.164062-.257812.242188-.40625l10.039062-19.367188 10.984375 19.621094c1.519531 2.71875 4.484375 4.308594 7.589844 4.070313 3.136719-.328125 5.8125-2.421875 6.882812-5.390625l11.601563-31.246094h3c7.71875.132812 15.03125 3.464844 20.191406 9.203125 5.160156 5.734375 7.707031 13.359375 7.027344 21.046875-.027344.269531.128906.644531.128906.914062v54.308594l-134 .015625v-54.324219c0-.261718.160156-.539062.132812-.808593zm0 0"/><path d="m175.925781 348.558594-12.796875 9.402344c-1.894531-5.457032-4.882812-10.464844-8.785156-14.722657-8.210938-9.003906-19.851562-14.109375-32.039062-14.050781h-8.550782c-3.304687-.078125-6.300781 1.925781-7.492187 5.011719l-7.5 19.976562-5.613281-10.074219c-1.425782-2.5-4.097657-4.035156-6.976563-4l-8.074219.085938c-2.96875-.042969-5.710937 1.582031-7.101562 4.207031l-4.398438 8.4375-6.375-18.402343c-1.128906-3.199219-4.179687-5.3125-7.574218-5.242188h-9.640626c-12.078124-.078125-23.628906 4.960938-31.785156 13.867188-8.160156 8.90625-12.167968 20.851562-11.035156 32.875v61.941406c-.042969 2.109375.765625 4.148437 2.246094 5.652344 1.476562 1.507812 3.5 2.351562 5.613281 2.347656l149.226563-.019532c2.113281-.003906 4.136718-.847656 5.625-2.351562 1.484374-1.5 2.308593-3.535156 2.289062-5.648438v-61.65625l20.144531-14.734374zm-26.636719 26.179687c-.027343.269531-.101562.539063-.101562.808594v54.308594l-133 .015625v-54.324219c-.03125-.269531-.078125-.539063-.136719-.808594-.78125-7.597656 1.714844-15.167969 6.859375-20.8125 5.148438-5.640625 12.460938-8.820312 20.097656-8.738281h3.929688l10.59375 30.644531c1.019531 2.917969 3.652344 4.976563 6.730469 5.261719 3.105469.308594 6.105469-1.207031 7.699219-3.890625.085937-.140625.167968-.3125.242187-.457031l10.042969-19.390625 10.984375 19.605469c1.519531 2.714843 4.484375 4.300781 7.589843 4.0625 3.078126-.15625 5.773438-2.113282 6.882813-4.988282l11.601563-30.847656h3c7.640624-.082031 14.953124 3.097656 20.105468 8.738281s7.652344 13.214844 6.878906 20.8125zm0 0"/><path d="m312.1875 343.242188v-80.421876c-.015625-3.480468-2.269531-6.554687-5.582031-7.613281l-58.941407-19c-1.601562-.515625-3.320312-.515625-4.921874 0l-58.964844 19c-3.3125 1.058594-5.570313 4.132813-5.589844 7.613281v80.421876c.019531 3.480468 2.273438 6.554687 5.585938 7.617187l58.941406 19c1.601562.511719 3.324218.511719 4.925781 0l58.960937-19c3.316407-1.0625 5.570313-4.136719 5.585938-7.617187zm-67-91.019532 32.859375 10.601563-32.859375 10.59375-32.855469-10.601563zm-51 21.582032 42 13.519531v63.613281l-42-13.519531zm58 77.785156v-63.617188l44-14.167968v63.613281zm0 0"/><path d="m286.1875 40.671875c0-22.359375-18.125-40.484375-40.484375-40.484375h-3.03125c-22.355469 0-40.484375 18.125-40.484375 40.484375v16.035156c0 22.355469 18.128906 40.480469 40.484375 40.480469h3.03125c22.359375 0 40.484375-18.125 40.484375-40.480469zm-16 16.03125c0 13.523437-10.960938 24.484375-24.484375 24.484375h-3.03125c-13.519531 0-24.484375-10.960938-24.484375-24.484375v-16.03125c0-13.523437 10.964844-24.484375 24.484375-24.484375h3.03125c13.523437 0 24.484375 10.960938 24.484375 24.484375zm0 0"/><path d="m123.1875 273.671875c.003906-22.359375-18.121094-40.484375-40.480469-40.484375h-3.035156c-22.359375 0-40.484375 18.125-40.484375 40.484375v16.03125c0 22.359375 18.125 40.484375 40.484375 40.484375h3.035156c22.359375 0 40.484375-18.125 40.480469-40.484375zm-16 16.03125c0 13.523437-10.960938 24.484375-24.484375 24.484375h-3.03125c-13.519531 0-24.484375-10.960938-24.484375-24.484375v-16.03125c0-13.523437 10.964844-24.484375 24.484375-24.484375h3.03125c13.523437 0 24.484375 10.960938 24.484375 24.484375zm0 0"/><path d="m448.1875 273.671875c.003906-22.359375-18.121094-40.484375-40.480469-40.484375h-3.035156c-22.359375 0-40.484375 18.125-40.484375 40.484375v16.03125c0 22.359375 18.125 40.484375 40.484375 40.484375h3.035156c22.359375 0 40.484375-18.125 40.480469-40.484375zm-16 16.03125c0 13.523437-10.960938 24.484375-24.484375 24.484375h-3.03125c-13.519531 0-24.484375-10.960938-24.484375-24.484375v-16.03125c0-13.523437 10.964844-24.484375 24.484375-24.484375h3.03125c13.523437 0 24.484375 10.960938 24.484375 24.484375zm0 0"/><path d="m447.378906 329.1875h-8.550781c-3.304687-.078125-6.304687 1.925781-7.492187 5.011719l-7.5 19.976562-5.613282-10.074219c-1.425781-2.5-4.097656-4.035156-6.980468-4l-8.066407.085938c-2.96875-.042969-5.710937 1.582031-7.101562 4.207031l-4.398438 8.4375-6.375-18.402343c-1.132812-3.199219-4.1875-5.3125-7.578125-5.242188h-9.640625c-18.390625-.136719-34.816406 11.476562-40.828125 28.859375l-11.445312-8.453125-9.410156 12.875 18.789062 13.726562v61.675782c-.023438 2.113281.796875 4.152344 2.285156 5.65625 1.484375 1.503906 3.511719 2.347656 5.628906 2.34375l149.199219-.019532c2.109375-.003906 4.128907-.851562 5.609375-2.355468 1.484375-1.5 2.300782-3.53125 2.277344-5.644532v-61.921874c1.132812-12.023438-2.871094-23.964844-11.027344-32.871094-8.160156-8.910156-19.703125-13.945313-31.78125-13.871094zm26.949219 45.550781c-.0625.269531-.105469.539063-.140625.808594v54.308594l-133 .015625v-54.324219c0-.269531-.074219-.539063-.097656-.808594-.777344-7.601562 1.726562-15.171875 6.882812-20.816406 5.152344-5.640625 12.46875-8.820313 20.109375-8.734375h3.929688l10.59375 30.644531c1.019531 2.917969 3.648437 4.976563 6.730469 5.261719 3.101562.308594 6.105468-1.207031 7.699218-3.890625.085938-.140625.164063-.3125.242188-.457031l10.042968-19.390625 10.980469 19.605469c1.523438 2.71875 4.484375 4.304687 7.589844 4.0625 3.078125-.15625 5.773437-2.113282 6.882813-4.988282l11.605468-30.847656h3c7.636719-.082031 14.945313 3.097656 20.089844 8.742188 5.148438 5.640624 7.640625 13.214843 6.855469 20.808593zm0 0"/></svg>