<?xml version="1.0"?>
<svg xmlns="http://www.w3.org/2000/svg" id="Outline" viewBox="0 0 64 64" width="512" height="512"><title>Partner icon</title><desc>Partner icon for website, application, printing, document, poster design, etc.</desc><metadata><?xpacket begin="﻿" id="W5M0MpCehiHzreSzNTczkc9d"?><x:xmpmeta xmlns:x="adobe:ns:meta/" x:xmptk="Adobe XMP Core 5.6-c145 79.163499, 2018/08/13-16:40:22        "><rdf:RDF xmlns:rdf="http://www.w3.org/1999/02/22-rdf-syntax-ns#"><rdf:Description xmlns:dc="http://purl.org/dc/elements/1.1/" rdf:about=""><dc:title><rdf:Alt><rdf:li xml:lang="x-default">Partner icon</rdf:li></rdf:Alt></dc:title><dc:description><rdf:Alt><rdf:li xml:lang="x-default">Partner icon for website, application, printing, document, poster design, etc.</rdf:li></rdf:Alt></dc:description><dc:subject><rdf:Bag><rdf:li xml:lang="x-default">Partner</rdf:li><rdf:li>team</rdf:li><rdf:li>teamwork</rdf:li><rdf:li>business</rdf:li><rdf:li>idea</rdf:li><rdf:li>bulb</rdf:li><rdf:li>man</rdf:li></rdf:Bag></dc:subject></rdf:Description></rdf:RDF></x:xmpmeta><?xpacket end="w"?></metadata><path d="M32,6a1,1,0,0,0,1-1V3a1,1,0,0,0-2,0V5A1,1,0,0,0,32,6Z"/><path d="M44,18a1,1,0,0,0,1,1h2a1,1,0,0,0,0-2H45A1,1,0,0,0,44,18Z"/><path d="M17,19h2a1,1,0,0,0,0-2H17a1,1,0,0,0,0,2Z"/><path d="M42.76,25.37l1.73,1a1,1,0,1,0,1-1.74l-1.73-1a1,1,0,0,0-1,1.74Z"/><path d="M18.51,11.37l1.73,1a1,1,0,1,0,1-1.74l-1.73-1a1,1,0,1,0-1,1.74Z"/><path d="M43.26,12.5a1,1,0,0,0,.5-.13l1.73-1a1,1,0,0,0-1-1.74l-1.73,1a1,1,0,0,0,.5,1.87Z"/><path d="M20.24,23.63l-1.73,1a1,1,0,0,0,1,1.74l1.73-1a1,1,0,1,0-1-1.74Z"/><path d="M24.63,7.24a1,1,0,0,0,1.74-1l-1-1.73a1,1,0,1,0-1.74,1Z"/><path d="M38,7.61a1,1,0,0,0,1.37-.37l1-1.73a1,1,0,0,0-1.74-1l-1,1.73A1,1,0,0,0,38,7.61Z"/><path d="M55,44H52a4.92,4.92,0,0,0,1-3V35a3,3,0,0,0-3-3H41a1,1,0,0,0-1,1v1a4,4,0,0,0,3,3.86V41a4.92,4.92,0,0,0,1,3H39V37.11a3.09,3.09,0,0,0-2.45-3.06,5.18,5.18,0,0,0,.35-1H37a3,3,0,0,0,0-6H35V20.62l1.45-.73A1,1,0,0,0,37,19V16a1,1,0,0,0-1.24-1L32,16,28.24,15a1,1,0,0,0-.86.18A1,1,0,0,0,27,16v3a1,1,0,0,0,.55.89l1.45.73V24a1,1,0,0,0,2,0V20a1,1,0,0,0-.55-.89L29,18.38v-1.1l2.76.69a1,1,0,0,0,.48,0L35,17.28v1.1l-1.45.73A1,1,0,0,0,33,20v7H28V24.24a1,1,0,0,0-.37-.78,7,7,0,1,1,8.74,0,1,1,0,0,0-.15,1.41,1,1,0,0,0,1.41.15A9,9,0,1,0,26,24.7v2.48A3,3,0,0,0,27,33h.1a5.18,5.18,0,0,0,.35,1A3.09,3.09,0,0,0,25,37.11V44H20a4.92,4.92,0,0,0,1-3V37.82A3,3,0,0,0,20,32H11a3,3,0,0,0-3,3v4a3,3,0,0,0,3,3h.1A4.84,4.84,0,0,0,12,44H9a3,3,0,0,0-3,3V59a3,3,0,0,0,6,0V50a1,1,0,0,0-2,0v6H8V47a1,1,0,0,1,1-1H26a1,1,0,0,0,1-1V40h2v6a2,2,0,0,1-2,2H21a1,1,0,0,0-1,1v7H15a1,1,0,0,0,0,2h5v3a1,1,0,0,0,2,0V50h5a4,4,0,0,0,4-4V37s0-.07,0-.1a5.15,5.15,0,0,0,2,0s0,.06,0,.1v9a4,4,0,0,0,4,4h5V61a1,1,0,0,0,2,0V58h5a1,1,0,0,0,0-2H44V49a1,1,0,0,0-1-1H37a2,2,0,0,1-2-2V40h2v5a1,1,0,0,0,1,1H55a1,1,0,0,1,1,1v9H54V49a1,1,0,0,0-2,0V59a3,3,0,0,0,6,0V47A3,3,0,0,0,55,44ZM10,58v1a1,1,0,0,1-2,0V58Zm0-19V35a1,1,0,0,1,1-1h9a1,1,0,0,1,0,2H14a1,1,0,0,0-1,1v2a1,1,0,0,1-1,1H11A1,1,0,0,1,10,39Zm3.12,2.78A3,3,0,0,0,15,39V38h4v3a3,3,0,0,1-5.88.78ZM26,30a1,1,0,0,1,1-1H37a1,1,0,0,1,0,2H27A1,1,0,0,1,26,30Zm1,8v-.89a1.09,1.09,0,0,1,.82-1.1,1,1,0,0,1,.83.23A1,1,0,0,1,29,37v1Zm2.17-5h5.66a3,3,0,0,1-5.66,0ZM35,38V37a1,1,0,0,1,.35-.76,1,1,0,0,1,.83-.23,1.09,1.09,0,0,1,.82,1.1V38Zm7-4h8a1,1,0,0,1,1,1v1H44A2,2,0,0,1,42,34Zm3,7V38h6v3a3,3,0,0,1-6,0ZM56,59a1,1,0,0,1-2,0V58h2Z"/></svg>
