<?xml version="1.0" encoding="iso-8859-1"?>
<!-- Generator: Adobe Illustrator 22.1.0, SVG Export Plug-In . SVG Version: 6.00 Build 0)  -->
<svg xmlns="http://www.w3.org/2000/svg" xmlns:xlink="http://www.w3.org/1999/xlink" version="1.1" id="Layer_1_1_" x="0px" y="0px" viewBox="0 0 64 64" style="enable-background:new 0 0 64 64;" xml:space="preserve" width="512" height="512">
<g>
	<rect x="15" y="5" width="8" height="2"/>
	<rect x="25" y="5" width="2" height="2"/>
	<rect x="11" y="5" width="2" height="2"/>
	<rect x="16" y="57" width="6" height="2"/>
	<path d="M60,17H39v2h21c0.551,0,1,0.449,1,1v24c0,0.551-0.449,1-1,1H47.764L41,48.382V45H28c-0.551,0-1-0.449-1-1V20   c0-0.551,0.449-1,1-1h9V6c0-2.757-2.243-5-5-5H6C3.243,1,1,3.243,1,6v52c0,2.757,2.243,5,5,5h26c2.757,0,5-2.243,5-5V47h2v4.618   L48.236,47H60c1.654,0,3-1.346,3-3V20C63,18.346,61.654,17,60,17z M25,20v24c0,1.654,1.346,3,3,3h3v2H7V15h24v2h-3   C26.346,17,25,18.346,25,20z M33,17v-4H5v38h28v-4h2v6H3V11h32v6H33z M6,3h26c1.654,0,3,1.346,3,3v3H3V6C3,4.346,4.346,3,6,3z    M32,61H6c-1.654,0-3-1.346-3-3v-3h32v3C35,59.654,33.654,61,32,61z"/>
	<path d="M33,32c0,6.065,4.935,11,11,11s11-4.935,11-11s-4.935-11-11-11c-0.031,0-0.061,0.004-0.092,0.005l0-0.001l-0.497,0.01   l-0.012,0.016C37.614,21.346,33,26.138,33,32z M36.862,26.54l1.749,3.044C38.866,30.03,39,30.537,39,31.049   C39,32.676,37.676,34,36.049,34h-0.818C35.085,33.356,35,32.688,35,32C35,29.946,35.699,28.057,36.862,26.54z M35.95,36h0.1   C38.779,36,41,33.779,41,31.049c0-0.859-0.226-1.709-0.652-2.457l-2.035-3.561c1.121-0.917,2.466-1.568,3.94-1.859   C42.092,23.708,42,24.263,42,24.829c0,1.022,0.398,1.984,1.122,2.707l1.343,1.343C44.81,29.224,45,29.683,45,30.171   C45,32.283,46.717,34,48.829,34h2.343c0.566,0,1.121-0.092,1.655-0.253c-0.264,1.335-0.829,2.56-1.615,3.614   C49.896,35.887,48.004,35,46,35c-3.016,0-5.65,1.953-6.608,4.717C37.919,38.833,36.72,37.544,35.95,36z M41.229,40.559   C41.855,38.486,43.779,37,46,37c1.494,0,2.905,0.688,3.847,1.828C48.273,40.178,46.232,41,44,41   C43.033,41,42.103,40.842,41.229,40.559z M52.976,31.529C52.417,31.835,51.804,32,51.171,32h-2.343C47.82,32,47,31.18,47,30.171   c0-1.022-0.398-1.984-1.122-2.707l-1.343-1.343C44.19,25.776,44,25.317,44,24.829c0-0.632,0.165-1.246,0.471-1.805   C49.057,23.263,52.737,26.943,52.976,31.529z"/>
	<rect x="9" y="17" width="14" height="2"/>
	<rect x="9" y="21" width="14" height="2"/>
	<rect x="9" y="25" width="14" height="2"/>
	<rect x="9" y="29" width="14" height="2"/>
</g>
</svg>
